<mxfile host="app.diagrams.net" modified="2023-09-05T07:28:09.677Z" agent="Mozilla/5.0 (Windows NT 10.0; Win64; x64) AppleWebKit/537.36 (KHTML, like Gecko) Chrome/116.0.0.0 Safari/537.36" etag="gfFzA_oyMXZm2NjsBt9Q" version="21.7.0" type="device">
  <diagram name="Page-1" id="FWdYw5kIZ3KdK0m4aHOO">
    <mxGraphModel dx="1257" dy="651" grid="1" gridSize="10" guides="1" tooltips="1" connect="1" arrows="1" fold="1" page="1" pageScale="1" pageWidth="827" pageHeight="1169" math="0" shadow="0">
      <root>
        <mxCell id="0" />
        <mxCell id="1" parent="0" />
        <mxCell id="ATB3s7asWBUUDeYjX_US-7" style="edgeStyle=orthogonalEdgeStyle;rounded=0;orthogonalLoop=1;jettySize=auto;html=1;exitX=0;exitY=1;exitDx=0;exitDy=0;entryX=0.45;entryY=0.993;entryDx=0;entryDy=0;entryPerimeter=0;fontSize=14;fontStyle=0;fontFamily=Poppins;fontSource=https%3A%2F%2Ffonts.googleapis.com%2Fcss%3Ffamily%3DPoppins;" edge="1" parent="1" source="ATB3s7asWBUUDeYjX_US-1" target="ATB3s7asWBUUDeYjX_US-3">
          <mxGeometry relative="1" as="geometry">
            <Array as="points">
              <mxPoint x="353" y="130" />
              <mxPoint x="105" y="130" />
            </Array>
          </mxGeometry>
        </mxCell>
        <mxCell id="ATB3s7asWBUUDeYjX_US-10" style="edgeStyle=orthogonalEdgeStyle;rounded=0;orthogonalLoop=1;jettySize=auto;html=1;exitX=1;exitY=0.5;exitDx=0;exitDy=0;entryX=0;entryY=0.5;entryDx=0;entryDy=0;fontSize=14;fontStyle=0;fontFamily=Poppins;fontSource=https%3A%2F%2Ffonts.googleapis.com%2Fcss%3Ffamily%3DPoppins;" edge="1" parent="1" source="ATB3s7asWBUUDeYjX_US-1" target="ATB3s7asWBUUDeYjX_US-9">
          <mxGeometry relative="1" as="geometry">
            <Array as="points">
              <mxPoint x="522" y="78" />
              <mxPoint x="590" y="78" />
            </Array>
          </mxGeometry>
        </mxCell>
        <mxCell id="ATB3s7asWBUUDeYjX_US-14" style="edgeStyle=orthogonalEdgeStyle;rounded=0;orthogonalLoop=1;jettySize=auto;html=1;exitX=0.5;exitY=1;exitDx=0;exitDy=0;entryX=0.25;entryY=0;entryDx=0;entryDy=0;fontSize=14;fontStyle=0;fontFamily=Poppins;fontSource=https%3A%2F%2Ffonts.googleapis.com%2Fcss%3Ffamily%3DPoppins;" edge="1" parent="1" source="ATB3s7asWBUUDeYjX_US-1" target="ATB3s7asWBUUDeYjX_US-13">
          <mxGeometry relative="1" as="geometry" />
        </mxCell>
        <mxCell id="ATB3s7asWBUUDeYjX_US-15" style="edgeStyle=orthogonalEdgeStyle;rounded=0;orthogonalLoop=1;jettySize=auto;html=1;exitX=1;exitY=1;exitDx=0;exitDy=0;entryX=0.812;entryY=-0.017;entryDx=0;entryDy=0;entryPerimeter=0;fontSize=14;fontStyle=0;fontFamily=Poppins;fontSource=https%3A%2F%2Ffonts.googleapis.com%2Fcss%3Ffamily%3DPoppins;" edge="1" parent="1" source="ATB3s7asWBUUDeYjX_US-1" target="ATB3s7asWBUUDeYjX_US-13">
          <mxGeometry relative="1" as="geometry" />
        </mxCell>
        <mxCell id="ATB3s7asWBUUDeYjX_US-1" value="0&lt;hr style=&quot;font-size: 14px;&quot;&gt;Food ordering System" style="shape=ellipse;html=1;dashed=0;whiteSpace=wrap;aspect=fixed;perimeter=ellipsePerimeter;fillStyle=auto;fillColor=none;strokeColor=#000000;fontSize=14;fontStyle=0;fontFamily=Poppins;fontSource=https%3A%2F%2Ffonts.googleapis.com%2Fcss%3Ffamily%3DPoppins;" vertex="1" parent="1">
          <mxGeometry x="340" y="20" width="115" height="115" as="geometry" />
        </mxCell>
        <mxCell id="ATB3s7asWBUUDeYjX_US-5" style="edgeStyle=orthogonalEdgeStyle;rounded=0;orthogonalLoop=1;jettySize=auto;html=1;exitX=0.45;exitY=-0.121;exitDx=0;exitDy=0;exitPerimeter=0;fontSize=14;fontStyle=0;fontFamily=Poppins;fontSource=https%3A%2F%2Ffonts.googleapis.com%2Fcss%3Ffamily%3DPoppins;" edge="1" parent="1" source="ATB3s7asWBUUDeYjX_US-3" target="ATB3s7asWBUUDeYjX_US-1">
          <mxGeometry relative="1" as="geometry">
            <mxPoint x="110" y="40" as="targetPoint" />
            <Array as="points">
              <mxPoint x="105" y="70" />
            </Array>
          </mxGeometry>
        </mxCell>
        <mxCell id="ATB3s7asWBUUDeYjX_US-3" value="Customer" style="html=1;dashed=0;whiteSpace=wrap;fontSize=14;fontStyle=0;fontFamily=Poppins;fontSource=https%3A%2F%2Ffonts.googleapis.com%2Fcss%3Ffamily%3DPoppins;" vertex="1" parent="1">
          <mxGeometry x="60" y="90" width="100" height="20" as="geometry" />
        </mxCell>
        <mxCell id="ATB3s7asWBUUDeYjX_US-6" value="Orders for food" style="text;html=1;align=center;verticalAlign=middle;resizable=0;points=[];autosize=1;strokeColor=none;fillColor=none;fontSize=14;fontStyle=0;fontFamily=Poppins;fontSource=https%3A%2F%2Ffonts.googleapis.com%2Fcss%3Ffamily%3DPoppins;" vertex="1" parent="1">
          <mxGeometry x="145" y="48" width="130" height="30" as="geometry" />
        </mxCell>
        <mxCell id="ATB3s7asWBUUDeYjX_US-8" value="Receipt" style="text;html=1;align=center;verticalAlign=middle;resizable=0;points=[];autosize=1;strokeColor=none;fillColor=none;fontSize=14;fontStyle=0;fontFamily=Poppins;fontSource=https%3A%2F%2Ffonts.googleapis.com%2Fcss%3Ffamily%3DPoppins;" vertex="1" parent="1">
          <mxGeometry x="205" y="100" width="70" height="30" as="geometry" />
        </mxCell>
        <mxCell id="ATB3s7asWBUUDeYjX_US-9" value="Kitchen" style="html=1;dashed=0;whiteSpace=wrap;fontSize=14;fontStyle=0;fontFamily=Poppins;fontSource=https%3A%2F%2Ffonts.googleapis.com%2Fcss%3Ffamily%3DPoppins;" vertex="1" parent="1">
          <mxGeometry x="590" y="60" width="100" height="50" as="geometry" />
        </mxCell>
        <mxCell id="ATB3s7asWBUUDeYjX_US-11" value="Food Order" style="text;html=1;align=center;verticalAlign=middle;resizable=0;points=[];autosize=1;strokeColor=none;fillColor=none;fontSize=14;fontStyle=0;fontFamily=Poppins;fontSource=https%3A%2F%2Ffonts.googleapis.com%2Fcss%3Ffamily%3DPoppins;" vertex="1" parent="1">
          <mxGeometry x="470" y="79" width="100" height="30" as="geometry" />
        </mxCell>
        <mxCell id="ATB3s7asWBUUDeYjX_US-13" value="Management" style="html=1;dashed=0;whiteSpace=wrap;fontSize=14;fontStyle=0;fontFamily=Poppins;fontSource=https%3A%2F%2Ffonts.googleapis.com%2Fcss%3Ffamily%3DPoppins;" vertex="1" parent="1">
          <mxGeometry x="335" y="240" width="100" height="50" as="geometry" />
        </mxCell>
        <mxCell id="ATB3s7asWBUUDeYjX_US-16" value="Bill" style="text;html=1;align=center;verticalAlign=middle;resizable=0;points=[];autosize=1;strokeColor=none;fillColor=none;fontSize=14;fontStyle=0;fontFamily=Poppins;fontSource=https%3A%2F%2Ffonts.googleapis.com%2Fcss%3Ffamily%3DPoppins;" vertex="1" parent="1">
          <mxGeometry x="320" y="188" width="40" height="30" as="geometry" />
        </mxCell>
        <mxCell id="ATB3s7asWBUUDeYjX_US-17" value="Management report" style="text;html=1;align=center;verticalAlign=middle;resizable=0;points=[];autosize=1;strokeColor=none;fillColor=none;fontSize=14;fontStyle=0;fontFamily=Poppins;fontSource=https%3A%2F%2Ffonts.googleapis.com%2Fcss%3Ffamily%3DPoppins;" vertex="1" parent="1">
          <mxGeometry x="420" y="188" width="150" height="30" as="geometry" />
        </mxCell>
        <mxCell id="ATB3s7asWBUUDeYjX_US-29" style="edgeStyle=orthogonalEdgeStyle;rounded=0;orthogonalLoop=1;jettySize=auto;html=1;exitX=1;exitY=0.5;exitDx=0;exitDy=0;fontSize=14;fontStyle=0;fontFamily=Poppins;fontSource=https%3A%2F%2Ffonts.googleapis.com%2Fcss%3Ffamily%3DPoppins;" edge="1" parent="1" source="ATB3s7asWBUUDeYjX_US-18" target="ATB3s7asWBUUDeYjX_US-28">
          <mxGeometry relative="1" as="geometry" />
        </mxCell>
        <mxCell id="ATB3s7asWBUUDeYjX_US-33" style="edgeStyle=orthogonalEdgeStyle;rounded=0;orthogonalLoop=1;jettySize=auto;html=1;exitX=0.5;exitY=1;exitDx=0;exitDy=0;entryX=1;entryY=0.5;entryDx=0;entryDy=0;fontSize=14;fontStyle=0;fontFamily=Poppins;fontSource=https%3A%2F%2Ffonts.googleapis.com%2Fcss%3Ffamily%3DPoppins;" edge="1" parent="1" source="ATB3s7asWBUUDeYjX_US-18" target="ATB3s7asWBUUDeYjX_US-19">
          <mxGeometry relative="1" as="geometry" />
        </mxCell>
        <mxCell id="ATB3s7asWBUUDeYjX_US-35" style="edgeStyle=orthogonalEdgeStyle;rounded=0;orthogonalLoop=1;jettySize=auto;html=1;exitX=1;exitY=1;exitDx=0;exitDy=0;fontSize=14;fontStyle=0;fontFamily=Poppins;fontSource=https%3A%2F%2Ffonts.googleapis.com%2Fcss%3Ffamily%3DPoppins;" edge="1" parent="1" source="ATB3s7asWBUUDeYjX_US-18" target="ATB3s7asWBUUDeYjX_US-20">
          <mxGeometry relative="1" as="geometry">
            <Array as="points">
              <mxPoint x="464" y="680" />
            </Array>
          </mxGeometry>
        </mxCell>
        <mxCell id="ATB3s7asWBUUDeYjX_US-18" value="1.0&lt;hr style=&quot;font-size: 14px;&quot;&gt;Processing of an order" style="shape=ellipse;html=1;dashed=0;whiteSpace=wrap;aspect=fixed;perimeter=ellipsePerimeter;fontSize=14;fontStyle=0;fontFamily=Poppins;fontSource=https%3A%2F%2Ffonts.googleapis.com%2Fcss%3Ffamily%3DPoppins;" vertex="1" parent="1">
          <mxGeometry x="370" y="440" width="110" height="110" as="geometry" />
        </mxCell>
        <mxCell id="ATB3s7asWBUUDeYjX_US-38" style="edgeStyle=orthogonalEdgeStyle;rounded=0;orthogonalLoop=1;jettySize=auto;html=1;entryX=0.5;entryY=0;entryDx=0;entryDy=0;fontSize=14;fontStyle=0;fontFamily=Poppins;fontSource=https%3A%2F%2Ffonts.googleapis.com%2Fcss%3Ffamily%3DPoppins;" edge="1" parent="1" source="ATB3s7asWBUUDeYjX_US-19" target="ATB3s7asWBUUDeYjX_US-37">
          <mxGeometry relative="1" as="geometry" />
        </mxCell>
        <mxCell id="ATB3s7asWBUUDeYjX_US-19" value="2.0&lt;hr style=&quot;font-size: 14px;&quot;&gt;Update sold item file" style="shape=ellipse;html=1;dashed=0;whiteSpace=wrap;aspect=fixed;perimeter=ellipsePerimeter;fontSize=14;fontStyle=0;fontFamily=Poppins;fontSource=https%3A%2F%2Ffonts.googleapis.com%2Fcss%3Ffamily%3DPoppins;" vertex="1" parent="1">
          <mxGeometry x="150" y="610" width="110" height="110" as="geometry" />
        </mxCell>
        <mxCell id="ATB3s7asWBUUDeYjX_US-44" style="edgeStyle=orthogonalEdgeStyle;rounded=0;orthogonalLoop=1;jettySize=auto;html=1;exitX=0.5;exitY=1;exitDx=0;exitDy=0;entryX=0.125;entryY=0;entryDx=0;entryDy=0;entryPerimeter=0;fontSize=14;fontStyle=0;fontFamily=Poppins;fontSource=https%3A%2F%2Ffonts.googleapis.com%2Fcss%3Ffamily%3DPoppins;" edge="1" parent="1" source="ATB3s7asWBUUDeYjX_US-20" target="ATB3s7asWBUUDeYjX_US-43">
          <mxGeometry relative="1" as="geometry" />
        </mxCell>
        <mxCell id="ATB3s7asWBUUDeYjX_US-20" value="2.0&lt;hr style=&quot;font-size: 14px;&quot;&gt;Update inventory file" style="shape=ellipse;html=1;dashed=0;whiteSpace=wrap;aspect=fixed;perimeter=ellipsePerimeter;fontSize=14;fontStyle=0;fontFamily=Poppins;fontSource=https%3A%2F%2Ffonts.googleapis.com%2Fcss%3Ffamily%3DPoppins;" vertex="1" parent="1">
          <mxGeometry x="570" y="618" width="122" height="122" as="geometry" />
        </mxCell>
        <mxCell id="ATB3s7asWBUUDeYjX_US-49" style="edgeStyle=orthogonalEdgeStyle;rounded=0;orthogonalLoop=1;jettySize=auto;html=1;exitX=0.5;exitY=1;exitDx=0;exitDy=0;entryX=0;entryY=0.75;entryDx=0;entryDy=0;fontSize=14;fontStyle=0;fontFamily=Poppins;fontSource=https%3A%2F%2Ffonts.googleapis.com%2Fcss%3Ffamily%3DPoppins;" edge="1" parent="1" source="ATB3s7asWBUUDeYjX_US-21" target="ATB3s7asWBUUDeYjX_US-48">
          <mxGeometry relative="1" as="geometry" />
        </mxCell>
        <mxCell id="ATB3s7asWBUUDeYjX_US-21" value="4.0&lt;hr style=&quot;font-size: 14px;&quot;&gt;Generate management report" style="shape=ellipse;html=1;dashed=0;whiteSpace=wrap;aspect=fixed;perimeter=ellipsePerimeter;fontSize=14;fontStyle=0;fontFamily=Poppins;fontSource=https%3A%2F%2Ffonts.googleapis.com%2Fcss%3Ffamily%3DPoppins;" vertex="1" parent="1">
          <mxGeometry x="370" y="890" width="110" height="110" as="geometry" />
        </mxCell>
        <mxCell id="ATB3s7asWBUUDeYjX_US-26" style="edgeStyle=orthogonalEdgeStyle;rounded=0;orthogonalLoop=1;jettySize=auto;html=1;fontSize=14;fontStyle=0;fontFamily=Poppins;fontSource=https%3A%2F%2Ffonts.googleapis.com%2Fcss%3Ffamily%3DPoppins;" edge="1" parent="1" source="ATB3s7asWBUUDeYjX_US-18" target="ATB3s7asWBUUDeYjX_US-23">
          <mxGeometry relative="1" as="geometry">
            <Array as="points">
              <mxPoint x="170" y="540" />
            </Array>
          </mxGeometry>
        </mxCell>
        <mxCell id="ATB3s7asWBUUDeYjX_US-27" style="edgeStyle=orthogonalEdgeStyle;rounded=0;orthogonalLoop=1;jettySize=auto;html=1;fontSize=14;fontStyle=0;fontFamily=Poppins;fontSource=https%3A%2F%2Ffonts.googleapis.com%2Fcss%3Ffamily%3DPoppins;" edge="1" parent="1" source="ATB3s7asWBUUDeYjX_US-23" target="ATB3s7asWBUUDeYjX_US-18">
          <mxGeometry relative="1" as="geometry">
            <mxPoint x="360" y="490" as="targetPoint" />
            <Array as="points">
              <mxPoint x="170" y="480" />
            </Array>
          </mxGeometry>
        </mxCell>
        <mxCell id="ATB3s7asWBUUDeYjX_US-23" value="Customer" style="html=1;dashed=0;whiteSpace=wrap;fontSize=14;fontStyle=0;fontFamily=Poppins;fontSource=https%3A%2F%2Ffonts.googleapis.com%2Fcss%3Ffamily%3DPoppins;" vertex="1" parent="1">
          <mxGeometry x="120" y="500" width="100" height="22" as="geometry" />
        </mxCell>
        <mxCell id="ATB3s7asWBUUDeYjX_US-24" value="Orders for food" style="text;html=1;align=center;verticalAlign=middle;resizable=0;points=[];autosize=1;strokeColor=none;fillColor=none;fontSize=14;fontStyle=0;fontFamily=Poppins;fontSource=https%3A%2F%2Ffonts.googleapis.com%2Fcss%3Ffamily%3DPoppins;" vertex="1" parent="1">
          <mxGeometry x="210" y="458" width="130" height="30" as="geometry" />
        </mxCell>
        <mxCell id="ATB3s7asWBUUDeYjX_US-25" value="Receipt" style="text;html=1;align=center;verticalAlign=middle;resizable=0;points=[];autosize=1;strokeColor=none;fillColor=none;fontSize=14;fontStyle=0;fontFamily=Poppins;fontSource=https%3A%2F%2Ffonts.googleapis.com%2Fcss%3Ffamily%3DPoppins;" vertex="1" parent="1">
          <mxGeometry x="265" y="512" width="70" height="30" as="geometry" />
        </mxCell>
        <mxCell id="ATB3s7asWBUUDeYjX_US-28" value="Kitchen" style="html=1;dashed=0;whiteSpace=wrap;fontSize=14;fontStyle=0;fontFamily=Poppins;fontSource=https%3A%2F%2Ffonts.googleapis.com%2Fcss%3Ffamily%3DPoppins;" vertex="1" parent="1">
          <mxGeometry x="600" y="470" width="100" height="50" as="geometry" />
        </mxCell>
        <mxCell id="ATB3s7asWBUUDeYjX_US-30" value="Text" style="text;html=1;align=center;verticalAlign=middle;resizable=0;points=[];autosize=1;strokeColor=none;fillColor=none;fontSize=14;fontStyle=0;fontFamily=Poppins;fontSource=https%3A%2F%2Ffonts.googleapis.com%2Fcss%3Ffamily%3DPoppins;" vertex="1" parent="1">
          <mxGeometry x="500" y="458" width="60" height="30" as="geometry" />
        </mxCell>
        <mxCell id="ATB3s7asWBUUDeYjX_US-34" value="Sold items" style="text;html=1;align=center;verticalAlign=middle;resizable=0;points=[];autosize=1;strokeColor=none;fillColor=none;fontSize=14;fontStyle=0;fontFamily=Poppins;fontSource=https%3A%2F%2Ffonts.googleapis.com%2Fcss%3Ffamily%3DPoppins;" vertex="1" parent="1">
          <mxGeometry x="255" y="638" width="90" height="30" as="geometry" />
        </mxCell>
        <mxCell id="ATB3s7asWBUUDeYjX_US-36" value="Inventory data" style="text;html=1;align=center;verticalAlign=middle;resizable=0;points=[];autosize=1;strokeColor=none;fillColor=none;fontSize=14;fontStyle=0;fontFamily=Poppins;fontSource=https%3A%2F%2Ffonts.googleapis.com%2Fcss%3Ffamily%3DPoppins;" vertex="1" parent="1">
          <mxGeometry x="460" y="569" width="120" height="30" as="geometry" />
        </mxCell>
        <mxCell id="ATB3s7asWBUUDeYjX_US-40" style="edgeStyle=orthogonalEdgeStyle;rounded=0;orthogonalLoop=1;jettySize=auto;html=1;exitX=0.5;exitY=1;exitDx=0;exitDy=0;entryX=-0.025;entryY=0.456;entryDx=0;entryDy=0;entryPerimeter=0;fontSize=14;fontStyle=0;fontFamily=Poppins;fontSource=https%3A%2F%2Ffonts.googleapis.com%2Fcss%3Ffamily%3DPoppins;" edge="1" parent="1" target="ATB3s7asWBUUDeYjX_US-21">
          <mxGeometry relative="1" as="geometry">
            <mxPoint x="133.9" y="829.9" as="sourcePoint" />
            <mxPoint x="376.0999999999999" y="940.0000000000001" as="targetPoint" />
            <Array as="points">
              <mxPoint x="136" y="830" />
              <mxPoint x="136" y="940" />
            </Array>
          </mxGeometry>
        </mxCell>
        <mxCell id="ATB3s7asWBUUDeYjX_US-37" value="Database of sold items" style="html=1;dashed=0;whiteSpace=wrap;shape=partialRectangle;right=0;left=0;fontSize=14;fontStyle=0;fontFamily=Poppins;fontSource=https%3A%2F%2Ffonts.googleapis.com%2Fcss%3Ffamily%3DPoppins;" vertex="1" parent="1">
          <mxGeometry x="80" y="820" width="100" height="30" as="geometry" />
        </mxCell>
        <mxCell id="ATB3s7asWBUUDeYjX_US-39" value="Formatted sold item data" style="text;html=1;align=center;verticalAlign=middle;resizable=0;points=[];autosize=1;strokeColor=none;fillColor=none;fontSize=14;fontStyle=0;fontFamily=Poppins;fontSource=https%3A%2F%2Ffonts.googleapis.com%2Fcss%3Ffamily%3DPoppins;" vertex="1" parent="1">
          <mxGeometry x="130" y="770" width="190" height="30" as="geometry" />
        </mxCell>
        <mxCell id="ATB3s7asWBUUDeYjX_US-42" value="Info. about daily sold items and amount" style="text;html=1;align=center;verticalAlign=middle;resizable=0;points=[];autosize=1;strokeColor=none;fillColor=none;fontSize=14;fontStyle=0;fontFamily=Poppins;fontSource=https%3A%2F%2Ffonts.googleapis.com%2Fcss%3Ffamily%3DPoppins;" vertex="1" parent="1">
          <mxGeometry x="70" y="940" width="280" height="30" as="geometry" />
        </mxCell>
        <mxCell id="ATB3s7asWBUUDeYjX_US-46" style="edgeStyle=orthogonalEdgeStyle;rounded=0;orthogonalLoop=1;jettySize=auto;html=1;entryX=1;entryY=0.5;entryDx=0;entryDy=0;fontSize=14;fontStyle=0;fontFamily=Poppins;fontSource=https%3A%2F%2Ffonts.googleapis.com%2Fcss%3Ffamily%3DPoppins;" edge="1" parent="1" target="ATB3s7asWBUUDeYjX_US-21">
          <mxGeometry relative="1" as="geometry">
            <mxPoint x="720.0588235294117" y="810" as="sourcePoint" />
            <mxPoint x="480" y="940" as="targetPoint" />
            <Array as="points">
              <mxPoint x="720" y="940" />
            </Array>
          </mxGeometry>
        </mxCell>
        <mxCell id="ATB3s7asWBUUDeYjX_US-43" value="Inventory database" style="html=1;dashed=0;whiteSpace=wrap;shape=partialRectangle;right=0;left=0;fontSize=14;fontStyle=0;fontFamily=Poppins;fontSource=https%3A%2F%2Ffonts.googleapis.com%2Fcss%3Ffamily%3DPoppins;" vertex="1" parent="1">
          <mxGeometry x="660" y="820" width="120" height="30" as="geometry" />
        </mxCell>
        <mxCell id="ATB3s7asWBUUDeYjX_US-45" value="Formatted inventory data" style="text;html=1;align=center;verticalAlign=middle;resizable=0;points=[];autosize=1;strokeColor=none;fillColor=none;fontSize=14;fontStyle=0;fontFamily=Poppins;fontSource=https%3A%2F%2Ffonts.googleapis.com%2Fcss%3Ffamily%3DPoppins;" vertex="1" parent="1">
          <mxGeometry x="630" y="750" width="190" height="30" as="geometry" />
        </mxCell>
        <mxCell id="ATB3s7asWBUUDeYjX_US-47" value="Info. about daily inventory depletion amount" style="text;html=1;align=center;verticalAlign=middle;resizable=0;points=[];autosize=1;strokeColor=none;fillColor=none;fontSize=14;fontStyle=0;fontFamily=Poppins;fontSource=https%3A%2F%2Ffonts.googleapis.com%2Fcss%3Ffamily%3DPoppins;" vertex="1" parent="1">
          <mxGeometry x="490" y="940" width="310" height="30" as="geometry" />
        </mxCell>
        <mxCell id="ATB3s7asWBUUDeYjX_US-48" value="Restaurant mangager" style="html=1;dashed=0;whiteSpace=wrap;fontSize=14;fontStyle=0;fontFamily=Poppins;fontSource=https%3A%2F%2Ffonts.googleapis.com%2Fcss%3Ffamily%3DPoppins;" vertex="1" parent="1">
          <mxGeometry x="490" y="1000" width="100" height="50" as="geometry" />
        </mxCell>
        <mxCell id="ATB3s7asWBUUDeYjX_US-50" value="Management report" style="text;html=1;align=center;verticalAlign=middle;resizable=0;points=[];autosize=1;strokeColor=none;fillColor=none;fontSize=14;fontStyle=0;fontFamily=Poppins;fontSource=https%3A%2F%2Ffonts.googleapis.com%2Fcss%3Ffamily%3DPoppins;" vertex="1" parent="1">
          <mxGeometry x="340" y="1030" width="150" height="30" as="geometry" />
        </mxCell>
        <mxCell id="ATB3s7asWBUUDeYjX_US-53" value="Level 0 DFD (Context Flow diagram)" style="text;html=1;align=center;verticalAlign=middle;resizable=0;points=[];autosize=1;strokeColor=none;fillColor=none;fontSize=14;fontStyle=0;fontFamily=Poppins;fontSource=https%3A%2F%2Ffonts.googleapis.com%2Fcss%3Ffamily%3DPoppins;" vertex="1" parent="1">
          <mxGeometry x="260" y="308" width="260" height="30" as="geometry" />
        </mxCell>
        <mxCell id="ATB3s7asWBUUDeYjX_US-54" value="Level 1 DFD" style="text;html=1;align=center;verticalAlign=middle;resizable=0;points=[];autosize=1;strokeColor=none;fillColor=none;fontSize=14;fontStyle=0;fontFamily=Poppins;fontSource=https%3A%2F%2Ffonts.googleapis.com%2Fcss%3Ffamily%3DPoppins;" vertex="1" parent="1">
          <mxGeometry x="365" y="1080" width="100" height="30" as="geometry" />
        </mxCell>
        <mxCell id="ATB3s7asWBUUDeYjX_US-57" style="edgeStyle=orthogonalEdgeStyle;rounded=0;orthogonalLoop=1;jettySize=auto;html=1;entryX=0;entryY=0.5;entryDx=0;entryDy=0;fontSize=14;fontStyle=0;fontFamily=Poppins;fontSource=https%3A%2F%2Ffonts.googleapis.com%2Fcss%3Ffamily%3DPoppins;" edge="1" parent="1" source="ATB3s7asWBUUDeYjX_US-55" target="ATB3s7asWBUUDeYjX_US-56">
          <mxGeometry relative="1" as="geometry" />
        </mxCell>
        <mxCell id="ATB3s7asWBUUDeYjX_US-55" value="Customer" style="html=1;dashed=0;whiteSpace=wrap;fontSize=14;fontStyle=0;fontFamily=Poppins;fontSource=https%3A%2F%2Ffonts.googleapis.com%2Fcss%3Ffamily%3DPoppins;" vertex="1" parent="1">
          <mxGeometry x="120" y="1240" width="100" height="50" as="geometry" />
        </mxCell>
        <mxCell id="ATB3s7asWBUUDeYjX_US-60" style="edgeStyle=orthogonalEdgeStyle;rounded=0;orthogonalLoop=1;jettySize=auto;html=1;entryX=0;entryY=0.5;entryDx=0;entryDy=0;fontSize=14;fontStyle=0;fontFamily=Poppins;fontSource=https%3A%2F%2Ffonts.googleapis.com%2Fcss%3Ffamily%3DPoppins;" edge="1" parent="1" source="ATB3s7asWBUUDeYjX_US-56" target="ATB3s7asWBUUDeYjX_US-59">
          <mxGeometry relative="1" as="geometry">
            <Array as="points">
              <mxPoint x="630" y="1265" />
            </Array>
          </mxGeometry>
        </mxCell>
        <mxCell id="ATB3s7asWBUUDeYjX_US-69" style="edgeStyle=orthogonalEdgeStyle;rounded=0;orthogonalLoop=1;jettySize=auto;html=1;exitX=0.5;exitY=1;exitDx=0;exitDy=0;fontSize=14;fontStyle=0;fontFamily=Poppins;fontSource=https%3A%2F%2Ffonts.googleapis.com%2Fcss%3Ffamily%3DPoppins;" edge="1" parent="1" source="ATB3s7asWBUUDeYjX_US-56" target="ATB3s7asWBUUDeYjX_US-62">
          <mxGeometry relative="1" as="geometry">
            <Array as="points">
              <mxPoint x="430" y="1310" />
            </Array>
          </mxGeometry>
        </mxCell>
        <mxCell id="ATB3s7asWBUUDeYjX_US-56" value="1.1&lt;hr style=&quot;font-size: 14px;&quot;&gt;Get an order" style="shape=ellipse;html=1;dashed=0;whiteSpace=wrap;aspect=fixed;perimeter=ellipsePerimeter;fontSize=14;fontStyle=0;fontFamily=Poppins;fontSource=https%3A%2F%2Ffonts.googleapis.com%2Fcss%3Ffamily%3DPoppins;" vertex="1" parent="1">
          <mxGeometry x="375" y="1220" width="90" height="90" as="geometry" />
        </mxCell>
        <mxCell id="ATB3s7asWBUUDeYjX_US-58" value="Orders for food" style="text;html=1;align=center;verticalAlign=middle;resizable=0;points=[];autosize=1;strokeColor=none;fillColor=none;fontSize=14;fontStyle=0;fontFamily=Poppins;fontSource=https%3A%2F%2Ffonts.googleapis.com%2Fcss%3Ffamily%3DPoppins;" vertex="1" parent="1">
          <mxGeometry x="205" y="1238" width="130" height="30" as="geometry" />
        </mxCell>
        <mxCell id="ATB3s7asWBUUDeYjX_US-59" value="Kitchen" style="html=1;dashed=0;whiteSpace=wrap;fontSize=14;fontStyle=0;fontFamily=Poppins;fontSource=https%3A%2F%2Ffonts.googleapis.com%2Fcss%3Ffamily%3DPoppins;" vertex="1" parent="1">
          <mxGeometry x="630" y="1235" width="100" height="50" as="geometry" />
        </mxCell>
        <mxCell id="ATB3s7asWBUUDeYjX_US-61" value="Food order" style="text;html=1;align=center;verticalAlign=middle;resizable=0;points=[];autosize=1;strokeColor=none;fillColor=none;fontSize=14;fontStyle=0;fontFamily=Poppins;fontSource=https%3A%2F%2Ffonts.googleapis.com%2Fcss%3Ffamily%3DPoppins;" vertex="1" parent="1">
          <mxGeometry x="480" y="1235" width="100" height="30" as="geometry" />
        </mxCell>
        <mxCell id="ATB3s7asWBUUDeYjX_US-65" style="edgeStyle=orthogonalEdgeStyle;rounded=0;orthogonalLoop=1;jettySize=auto;html=1;exitX=1;exitY=0.5;exitDx=0;exitDy=0;entryX=0;entryY=0.5;entryDx=0;entryDy=0;fontSize=14;fontStyle=0;fontFamily=Poppins;fontSource=https%3A%2F%2Ffonts.googleapis.com%2Fcss%3Ffamily%3DPoppins;" edge="1" parent="1" source="ATB3s7asWBUUDeYjX_US-62" target="ATB3s7asWBUUDeYjX_US-63">
          <mxGeometry relative="1" as="geometry" />
        </mxCell>
        <mxCell id="ATB3s7asWBUUDeYjX_US-67" style="edgeStyle=orthogonalEdgeStyle;rounded=0;orthogonalLoop=1;jettySize=auto;html=1;exitX=0;exitY=0.5;exitDx=0;exitDy=0;entryX=0.5;entryY=1;entryDx=0;entryDy=0;fontSize=14;fontStyle=0;fontFamily=Poppins;fontSource=https%3A%2F%2Ffonts.googleapis.com%2Fcss%3Ffamily%3DPoppins;" edge="1" parent="1" source="ATB3s7asWBUUDeYjX_US-62" target="ATB3s7asWBUUDeYjX_US-55">
          <mxGeometry relative="1" as="geometry" />
        </mxCell>
        <mxCell id="ATB3s7asWBUUDeYjX_US-62" value="1.2&lt;hr style=&quot;font-size: 14px;&quot;&gt;Prepare the bill" style="shape=ellipse;html=1;dashed=0;whiteSpace=wrap;aspect=fixed;perimeter=ellipsePerimeter;fontSize=14;fontStyle=0;fontFamily=Poppins;fontSource=https%3A%2F%2Ffonts.googleapis.com%2Fcss%3Ffamily%3DPoppins;" vertex="1" parent="1">
          <mxGeometry x="380" y="1420" width="100" height="100" as="geometry" />
        </mxCell>
        <mxCell id="ATB3s7asWBUUDeYjX_US-63" value="Restarurant manager" style="html=1;dashed=0;whiteSpace=wrap;fontSize=14;fontStyle=0;fontFamily=Poppins;fontSource=https%3A%2F%2Ffonts.googleapis.com%2Fcss%3Ffamily%3DPoppins;" vertex="1" parent="1">
          <mxGeometry x="620" y="1480" width="100" height="50" as="geometry" />
        </mxCell>
        <mxCell id="ATB3s7asWBUUDeYjX_US-66" value="Bill" style="text;html=1;align=center;verticalAlign=middle;resizable=0;points=[];autosize=1;strokeColor=none;fillColor=none;fontSize=14;fontStyle=0;fontFamily=Poppins;fontSource=https%3A%2F%2Ffonts.googleapis.com%2Fcss%3Ffamily%3DPoppins;" vertex="1" parent="1">
          <mxGeometry x="510" y="1478" width="40" height="30" as="geometry" />
        </mxCell>
        <mxCell id="ATB3s7asWBUUDeYjX_US-68" value="Receipt" style="text;html=1;align=center;verticalAlign=middle;resizable=0;points=[];autosize=1;fontSize=14;fontStyle=0;fontFamily=Poppins;fontSource=https%3A%2F%2Ffonts.googleapis.com%2Fcss%3Ffamily%3DPoppins;" vertex="1" parent="1">
          <mxGeometry x="175" y="1370" width="70" height="30" as="geometry" />
        </mxCell>
        <mxCell id="ATB3s7asWBUUDeYjX_US-70" value="Food order" style="text;html=1;align=center;verticalAlign=middle;resizable=0;points=[];autosize=1;strokeColor=none;fillColor=none;fontSize=14;fontStyle=0;fontFamily=Poppins;fontSource=https%3A%2F%2Ffonts.googleapis.com%2Fcss%3Ffamily%3DPoppins;" vertex="1" parent="1">
          <mxGeometry x="430" y="1380" width="100" height="30" as="geometry" />
        </mxCell>
        <mxCell id="ATB3s7asWBUUDeYjX_US-71" value="Level 2 DFD" style="text;html=1;align=center;verticalAlign=middle;resizable=0;points=[];autosize=1;strokeColor=none;fillColor=none;fontSize=14;fontStyle=0;fontFamily=Poppins;fontSource=https%3A%2F%2Ffonts.googleapis.com%2Fcss%3Ffamily%3DPoppins;" vertex="1" parent="1">
          <mxGeometry x="370" y="1568" width="100" height="30" as="geometry" />
        </mxCell>
      </root>
    </mxGraphModel>
  </diagram>
</mxfile>
